 http://bayimg.com/nAjNAAaep


  
http://www.imdb.com/title/tt0882977/



Plot: A father goes undercover for the DEA in order to free his son who was imprisoned after being set up in drug deal. 



Director:
 Ric Roman Waugh

Writers:
 Justin Haythe, Ric Roman Waugh

Stars:
 Dwayne Johnson, Susan Sarandon, Jon Bernthal

Genres:
 Action | Drama | Thriller 

Country:
USA 



ALL CREDITS GO TO ORIGINAL SOURCE/S:

VIDEO - A FRIEND
AUDIO - A FRIEND


General
Format                                   : AVI
Format/Info                              : Audio Video Interleave
File size                                : 1.82 GiB
Duration                                 : 1h 45mn
Overall bit rate                         : 2 464 Kbps
Writing library                          : VirtualDub build 32842/release

Video
ID                                       : 0
Format                                   : MPEG-4 Visual
Format settings, BVOP                    : Yes
Format settings, QPel                    : No
Format settings, GMC                     : No warppoints
Format settings, Matrix                  : Default (H.263)
Codec ID                                 : DX50
Codec ID/Hint                            : DivX 5
Duration                                 : 1h 45mn
Bit rate                                 : 2 197 Kbps
Width                                    : 820 pixels
Height                                   : 360 pixels
Display aspect ratio                     : 2.25:1
Frame rate                               : 29.970 fps
Color space                              : YUV
Chroma subsampling                       : 4:2:0
Bit depth                                : 8 bits
Scan type                                : Progressive
Compression mode                         : Lossy
Bits/(Pixel*Frame)                       : 0.248
Stream size                              : 1.62 GiB (89%)
Writing library                          : DivX 6.8.5 (UTC 2009-08-20)

Audio
ID                                       : 1
Format                                   : MPEG Audio
Format version                           : Version 1
Format profile                           : Layer 3
Codec ID                                 : 55
Codec ID/Hint                            : MP3
Duration                                 : 1h 45mn
Bit rate mode                            : Constant
Bit rate                                 : 256 Kbps
Channel(s)                               : 2 channels
Sampling rate                            : 44.1 KHz
Compression mode                         : Lossy
Stream size                              : 194 MiB (10%)
Alignment                                : Split accross interleaves
Interleave, duration                     : 33 ms (1.00 video frame)
Interleave, preload duration             : 500 ms



IMDb:    http://www.imdb.com/title/tt0882977/



WORK DONE:

VIDEO: CROPPED, RESIZED, FIXED COLRS, DENOISED, REMOVED BAD PIXELS ECT

AUDIO: RUN THROUGH SOUND FORGE

Sample Included



 
http://bayimg.com/IAkhgaAeB 
http://bayimg.com/IAKHhAAEb 
http://bayimg.com/IAKhiaaeb